<svg width="174" height="59" viewBox="0 0 174 59" fill="none" xmlns="http://www.w3.org/2000/svg">
<rect width="61.4206" height="58.9881" rx="9.72287" transform="matrix(1 0 0 -1 0 58.9883)" fill="#015EEB"/>
<path d="M41.0554 19.4455H45.9377L38.6469 42.5547H34.4156L30.0867 26.1178H29.989L25.4974 42.5547H21.2987L14.0079 19.4455H18.8901L23.3818 35.0686H23.4469L27.5479 19.4455H32.3976L36.4987 35.0686H36.5312L41.0554 19.4455Z" fill="white"/>
<path d="M93.9692 18.7638H98.4545L91.7564 39.9941H87.8692L83.8922 24.8937H83.8025L79.6761 39.9941H75.8187L69.1207 18.7638H73.606L77.7325 33.1167H77.7923L81.5599 18.7638H86.0153L89.7829 33.1167H89.8128L93.9692 18.7638ZM102.693 23.3388C101.377 23.3388 100.271 22.2623 100.271 20.9466C100.271 19.6309 101.377 18.5545 102.693 18.5545C104.038 18.5545 105.145 19.6309 105.145 20.9466C105.145 22.2623 104.038 23.3388 102.693 23.3388ZM100.719 39.9941V25.402H104.636V39.9941H100.719Z" fill="white"/>
<path d="M122.799 39.9941L121.363 35.7481H113.2L111.765 39.9941H107.369L115.233 18.7638H119.27L127.194 39.9941H122.799ZM114.426 32.1598H120.137L117.297 23.8172H117.237L114.426 32.1598ZM138.812 25.402H142.729V39.9941H138.812V38.2H138.752C137.646 39.5456 136.061 40.2334 134.416 40.2334C131.276 40.2334 129.064 38.6486 129.064 34.1932V25.402H132.951V33.1466C132.951 35.8378 133.758 36.7348 135.582 36.7348C137.287 36.7348 138.812 35.2995 138.812 32.4888V25.402ZM151.106 40.2334C148.594 40.2334 146.949 38.6785 146.949 35.3892V28.6314H145.215V25.402H146.949V20.6177L150.837 20.1991V25.402H154.814V28.6314H150.837V34.851C150.837 36.1069 151.225 36.7049 152.123 36.7049C152.601 36.7049 153.319 36.5255 153.976 36.1966L154.993 39.3363C154.036 39.8446 153.079 40.2334 151.106 40.2334ZM163.953 40.2334C159.318 40.2334 156.208 37.0638 156.208 32.6981C156.208 28.3324 159.318 25.1628 163.953 25.1628C168.498 25.1628 171.727 28.2128 171.727 32.6981C171.727 37.1834 168.498 40.2334 163.953 40.2334ZM163.953 36.7348C166.076 36.7348 167.75 35.0603 167.75 32.6981C167.75 30.3059 166.136 28.6613 163.953 28.6613C161.68 28.6613 160.155 30.3956 160.155 32.6981C160.155 34.9706 161.74 36.7348 163.953 36.7348Z" fill="#015EEB"/>
</svg>
